<svg width="30" height="26" viewBox="0 0 30 26" fill="none" xmlns="http://www.w3.org/2000/svg">
<path d="M25.2031 5.57657L12.4008 21.9531L6.0536 24.8543L7.83629 18.0289L20.4084 1.82837L25.2031 5.57657Z" fill="white" stroke="black" stroke-width="0.5"/>
<path d="M7.72185 17.7764L12.4143 21.6769" stroke="black" stroke-width="0.3"/>
<path d="M18.9461 3.41277L24.0051 7.3676" stroke="black" stroke-width="0.2"/>
<path d="M6.29921 24.4897C6.3191 24.4495 6.35371 24.434 6.39429 24.4216C6.40569 24.4181 6.42266 24.4094 6.42906 24.424C6.43755 24.4434 6.46455 24.4575 6.45967 24.4864C6.45267 24.5278 6.42812 24.5471 6.39076 24.5595C6.3605 24.5695 6.31875 24.6028 6.28471 24.5941C6.2579 24.5871 6.21752 24.5478 6.20527 24.5223C6.19359 24.4981 6.21487 24.4859 6.22996 24.4692C6.25125 24.4456 6.29084 24.417 6.32448 24.4183C6.34298 24.419 6.34307 24.4432 6.34782 24.4568C6.36324 24.501 6.38656 24.541 6.40037 24.5863C6.40194 24.5914 6.41121 24.6219 6.40742 24.6189C6.33608 24.5617 6.25662 24.503 6.21057 24.4223C6.19137 24.3886 6.1535 24.2995 6.16812 24.2618C6.17255 24.2503 6.18082 24.2364 6.19095 24.2298C6.21337 24.2153 6.21747 24.2432 6.2223 24.259C6.23142 24.2889 6.23592 24.3389 6.2635 24.3572C6.29751 24.3798 6.35008 24.3802 6.38916 24.3906C6.45878 24.409 6.51784 24.465 6.5676 24.515C6.59758 24.5451 6.64276 24.5523 6.67208 24.5845C6.67967 24.5928 6.6895 24.6245 6.6792 24.6315C6.6526 24.6496 6.60379 24.6603 6.57231 24.6609C6.53718 24.6616 6.50247 24.6503 6.46785 24.6461C6.4234 24.6407 6.37895 24.6412 6.3343 24.6426C6.28282 24.6443 6.22228 24.6435 6.17198 24.6589C6.15288 24.6647 6.14098 24.6533 6.12322 24.6509C6.10272 24.6482 6.0973 24.6655 6.12123 24.6646C6.14289 24.6637 6.16411 24.6547 6.18474 24.6485" stroke="black" stroke-width="0.2" stroke-linecap="round"/>
</svg>
